<?xml version="1.0" encoding="UTF-8" standalone="no"?>
<!-- Created with Inkscape (http://www.inkscape.org/) -->
<svg id="svg7365" xmlns="http://www.w3.org/2000/svg" height="48" width="48" version="1.1" xmlns:xlink="http://www.w3.org/1999/xlink">
 <defs id="defs7367">
  <linearGradient id="linearGradient4444" y2="-13" gradientUnits="userSpaceOnUse" x2="-26" gradientTransform="translate(50 50)" y1="-38" x1="-26">
   <stop id="stop4436" stop-color="#eeeeec" offset="0"/>
   <stop id="stop4438" stop-color="#babdb6" offset=".75692"/>
   <stop id="stop4440" stop-color="#a1a59b" offset="1"/>
  </linearGradient>
  <linearGradient id="linearGradient4448" y2="37" gradientUnits="userSpaceOnUse" x2="24" y1="13" x1="24">
   <stop id="stop3203" stop-color="#fff" offset="0"/>
   <stop id="stop3205" stop-color="#fff" stop-opacity="0" offset="1"/>
  </linearGradient>
 </defs>
 <g id="layer1" stroke-dashoffset=".7" stroke-linecap="round">
  <path id="rect7213" stroke-linejoin="round" d="m13.5 14.5c-2.7359 0-5 2.2641-5 5v9.0625c0 2.7359 2.2641 5 5 5h5v-4h-5c-0.58909 0-1-0.41091-1-1v-9.0625c0-0.58909 0.41091-1 1-1h21c0.58909 0 1 0.41091 1 1v9.0625c0 0.58909-0.41091 1-1 1h-5v-3.0625l-7 5 7 5v-2.9375h5c2.7359 0 5-2.2641 5-5v-9.0625c0-2.7359-2.2641-5-5-5h-21z" stroke="#888a85" fill="url(#linearGradient4444)"/>
  <path id="path7239" opacity=".6" d="m13.5 15.406c-2.2359 0-4.0938 1.8578-4.0938 4.0938v9.0625c0 2.2359 1.8578 4.0938 4.0938 4.0938h4.0938v-2.1875h-4.0938c-1.0105 0-1.9062-0.89573-1.9062-1.9062v-9.0625c0-1.0105 0.89573-1.9062 1.9062-1.9062h21c1.0105 0 1.9062 0.89574 1.9062 1.9062v9.0625c0 1.0105-0.89573 1.9062-1.9062 1.9062h-5a0.90634 0.90634 0 0 1 -0.906 -0.906v-1.2812l-4.5 3.2188 4.5 3.2188v-1.1562a0.90634 0.90634 0 0 1 0.906 -0.906h5c2.2359 0 4.0937-1.8578 4.0938-4.0938v-9.0625c0-2.2359-1.8578-4.0938-4.0938-4.0938h-21z" transform="translate(-0.00625 -.018750)" stroke="url(#linearGradient4448)" stroke-width="0.8" fill="none"/>
 </g>
</svg>
