<?xml version="1.0" encoding="UTF-8" standalone="no"?>
<!-- Created with Inkscape (http://www.inkscape.org/) -->

<svg
   xmlns:svg="http://www.w3.org/2000/svg"
   xmlns="http://www.w3.org/2000/svg"
   xmlns:xlink="http://www.w3.org/1999/xlink"
   version="1.1"
   width="48"
   height="48"
   id="svg7306">
  <defs
     id="defs7308">
    <linearGradient
       id="linearGradient3742">
      <stop
         id="stop3744"
         style="stop-color:#eeeeec;stop-opacity:1"
         offset="0" />
      <stop
         id="stop3746"
         style="stop-color:#babdb6;stop-opacity:1"
         offset="0.74033606" />
      <stop
         id="stop3748"
         style="stop-color:#a1a59b;stop-opacity:1"
         offset="1" />
    </linearGradient>
    <linearGradient
       id="linearGradient3734">
      <stop
         id="stop3736"
         style="stop-color:#eeeeec;stop-opacity:1"
         offset="0" />
      <stop
         id="stop3738"
         style="stop-color:#babdb6;stop-opacity:1"
         offset="0.74950081" />
      <stop
         id="stop3740"
         style="stop-color:#a1a59b;stop-opacity:1"
         offset="1" />
    </linearGradient>
    <linearGradient
       id="linearGradient3212">
      <stop
         id="stop3214"
         style="stop-color:white;stop-opacity:1"
         offset="0" />
      <stop
         id="stop3216"
         style="stop-color:white;stop-opacity:0"
         offset="1" />
    </linearGradient>
    <linearGradient
       id="linearGradient6889">
      <stop
         id="stop6891"
         style="stop-color:black;stop-opacity:1"
         offset="0" />
      <stop
         id="stop6893"
         style="stop-color:black;stop-opacity:0"
         offset="1" />
    </linearGradient>
    <linearGradient
       id="linearGradient6866">
      <stop
         id="stop6868"
         style="stop-color:white;stop-opacity:1"
         offset="0" />
      <stop
         id="stop6870"
         style="stop-color:white;stop-opacity:0"
         offset="1" />
    </linearGradient>
    <linearGradient
       x1="22.00042"
       y1="-41.000038"
       x2="22"
       y2="-13"
       id="linearGradient3752"
       xlink:href="#linearGradient3734"
       gradientUnits="userSpaceOnUse"
       gradientTransform="translate(-4.19e-4,50.00004)" />
    <radialGradient
       cx="21.578125"
       cy="24.484375"
       r="3.171875"
       fx="21.578125"
       fy="24.484375"
       id="radialGradient3755"
       xlink:href="#linearGradient6889"
       gradientUnits="userSpaceOnUse"
       gradientTransform="matrix(1,0,0,2.2315271,-4.19e-4,-30.153131)" />
    <linearGradient
       x1="22.00042"
       y1="-40.000038"
       x2="22.00042"
       y2="-13.00004"
       id="linearGradient3759"
       xlink:href="#linearGradient3742"
       gradientUnits="userSpaceOnUse"
       gradientTransform="translate(-4.19e-4,50.00004)" />
    <linearGradient
       x1="22.00042"
       y1="12.99996"
       x2="22.00042"
       y2="32.999962"
       id="linearGradient3766"
       xlink:href="#linearGradient3212"
       gradientUnits="userSpaceOnUse" />
    <linearGradient
       x1="22"
       y1="12"
       x2="22.00042"
       y2="34.999962"
       id="linearGradient3768"
       xlink:href="#linearGradient6866"
       gradientUnits="userSpaceOnUse" />
  </defs>
  <g
     id="layer1">
    <g
       transform="translate(-4.19e-4,4e-5)"
       id="g6954"
       style="opacity:0.5" />
    <path
       d="m 31.499581,36.50004 0,-3 -3,0 c -2.12222,-10e-7 -4.24698,-0.903558 -5.96875,-2.4375 -1.72177,-1.533942 -3.03125,-3.827579 -3.03125,-6.5625 0,-3.33603 -2.03913,-5 -4.5,-5 -3.32838,0 -4.5,0 -4.5,0 l -2,0 0,-4 2,0 c 0,0 1.17162,0 4.5,0 4.53913,0 8.5,3.79144 8.5,9 0,1.465079 0.69052,2.677692 1.71875,3.59375 1.02823,0.916058 2.40347,1.40625 3.28125,1.40625 l 3,0 0,-3 7,5 -7,5 z"
       id="path6793"
       style="fill:url(#linearGradient3759);fill-opacity:1;fill-rule:evenodd;stroke:#888a85;stroke-width:1;stroke-linecap:square;stroke-linejoin:miter;stroke-miterlimit:4;stroke-opacity:1;stroke-dasharray:none" />
    <path
       d="m 9.3125,16.3125 0,2.375 1.1875,0 4.5,0 c 1.413566,0 2.766294,0.497513 3.75,1.5 0.983706,1.002487 1.5625,2.47894 1.5625,4.3125 0,2.475571 1.175817,4.566296 2.75,5.96875 1.592203,1.418508 3.545898,2.218749 5.4375,2.21875 l 3,0 A 0.81258125,0.81258125 0 0 1 32.3125,33.5 l 0,1.4375 4.8125,-3.4375 -4.8125,-3.4375 0,1.4375 A 0.81258125,0.81258125 0 0 1 31.5,30.3125 l -3,0 c -1.18027,0 -2.623091,-0.565344 -3.8125,-1.625 -1.159234,-1.032772 -2,-2.467122 -2,-4.1875 0,-4.796647 -3.600817,-8.1875 -7.6875,-8.1875 l -4.5,0 -1.1875,0 z"
       transform="translate(0,-0.03750001)"
       id="path6854"
       style="opacity:0.6;fill:none;stroke:url(#linearGradient3768);stroke-width:0.80000001;stroke-linecap:square;stroke-linejoin:miter;stroke-miterlimit:4;stroke-opacity:1;stroke-dasharray:none" />
    <path
       d="m 20.968331,17.40629 c -1.15002,1.182769 -2.0687,2.667515 -2.5625,4.40625 0.40105,0.681118 0.625,1.561935 0.625,2.6875 0,2.887604 1.37884,5.294899 3.1875,6.90625 0.06175,0.05502 0.12476,0.10276 0.1875,0.15625 1.1268,-1.298561 1.95547,-2.918195 2.34375,-4.71875 -0.4785,-0.679136 -0.78125,-1.451225 -0.78125,-2.34375 0,-2.900128 -1.17337,-5.394254 -3,-7.09375 z"
       id="path6876"
       style="opacity:0.6;fill:url(#radialGradient3755);fill-opacity:1;fill-rule:evenodd;stroke:none" />
    <path
       d="m 31.499581,12.50004 0,3 -3,0 c -2.12222,10e-7 -4.24698,0.903558 -5.96875,2.4375 -1.72177,1.533942 -3.03125,3.827579 -3.03125,6.5625 0,3.33603 -2.03913,5 -4.5,5 -3.32838,0 -4.5,0 -4.5,0 l -2,0 0,4 2,0 c 0,0 1.17162,0 4.5,0 4.53913,0 8.5,-3.79144 8.5,-9 0,-1.465079 0.69052,-2.677692 1.71875,-3.59375 1.02823,-0.916058 2.40347,-1.40625 3.28125,-1.40625 l 3,0 0,3 7,-5 -7,-5 z"
       id="path6784"
       style="fill:url(#linearGradient3752);fill-opacity:1;fill-rule:evenodd;stroke:#888a85;stroke-width:1;stroke-linecap:square;stroke-linejoin:miter;stroke-miterlimit:4;stroke-opacity:1;stroke-dasharray:none" />
    <path
       d="m 32.34375,14.15625 0,1.34375 A 0.85262163,0.85262163 0 0 1 31.5,16.34375 l -3,0 c -1.880238,1e-6 -3.820431,0.80593 -5.40625,2.21875 -1.566911,1.395975 -2.75,3.474708 -2.75,5.9375 0,1.841717 -0.570598,3.332911 -1.5625,4.34375 -0.991902,1.010839 -2.35866,1.5 -3.78125,1.5 l -4.5,0 -1.15625,0 0,2.3125 1.15625,0 4.5,0 c 4.064388,0 7.65625,-3.3799 7.65625,-8.15625 0,-1.732958 0.834311,-3.180226 2,-4.21875 1.197351,-1.066731 2.648575,-1.625 3.84375,-1.625 l 3,0 A 0.85262163,0.85262163 0 0 1 32.34375,19.5 l 0,1.34375 4.6875,-3.34375 -4.6875,-3.34375 z"
       transform="translate(0,-0.03750001)"
       id="path6816"
       style="opacity:0.6;fill:none;stroke:url(#linearGradient3766);stroke-width:0.80000001;stroke-linecap:square;stroke-linejoin:miter;stroke-miterlimit:4;stroke-opacity:1;stroke-dasharray:none" />
  </g>
</svg>
