<?xml version="1.0" encoding="UTF-8" standalone="no"?>
<svg xmlns="http://www.w3.org/2000/svg" height="48" width="48" version="1.1" viewBox="0 0 48 48">
 <defs>
  <linearGradient id="e" y2="-13" gradientUnits="userSpaceOnUse" x2="22" gradientTransform="translate(0,50)" y1="-41" x1="22">
   <stop stop-color="#ccc" offset="0"/>
   <stop stop-color="#999" offset=".75"/>
   <stop stop-color="#555" offset="1"/>
  </linearGradient>
  <radialGradient id="a" gradientUnits="userSpaceOnUse" cy="24.484" cx="21.578" gradientTransform="matrix(1,0,0,2.2315,0,-30.153)" r="3.1719">
   <stop offset="0"/>
   <stop stop-opacity="0" offset="1"/>
  </radialGradient>
  <linearGradient id="d" y2="-13" gradientUnits="userSpaceOnUse" x2="22" gradientTransform="translate(0,50)" y1="-40" x1="22">
   <stop stop-color="#ccc" offset="0"/>
   <stop stop-color="#999" offset=".75"/>
   <stop stop-color="#555" offset="1"/>
  </linearGradient>
  <linearGradient id="c" y2="33" gradientUnits="userSpaceOnUse" x2="22" y1="13" x1="22">
   <stop stop-color="#fff" offset="0"/>
   <stop stop-color="#fff" stop-opacity=".2" offset="1"/>
  </linearGradient>
  <linearGradient id="b" y2="35" gradientUnits="userSpaceOnUse" x2="22" y1="12" x1="22">
   <stop stop-color="#fff" offset="0"/>
   <stop stop-color="#fff" stop-opacity=".2" offset="1"/>
  </linearGradient>
 </defs>
 <path d="m31.5 36.5v-3h-3c-2.1222-0.000001-4.247-0.90356-5.9688-2.4375-1.722-1.533-3.031-3.827-3.031-6.562 0-3.336-2.0391-5-4.5-5h-6.5v-4h6.5c4.5391 0 8.5 3.7914 8.5 9 0 1.4651 0.69052 2.6777 1.7188 3.5938 1.028 0.916 2.403 1.406 3.281 1.406h3v-3l7 5z" fill-rule="evenodd" stroke="#444" stroke-linecap="square" fill="url(#d)"/>
 <path opacity=".6" d="m9.3125 18.687h5.6875c1.4136 0 2.7663 0.49751 3.75 1.5 0.98371 1.0025 1.5625 2.4789 1.5625 4.3125 0 2.4756 1.1758 4.5663 2.75 5.9688 1.5922 1.4185 3.5459 2.2187 5.4375 2.2188h3c0.44871 0.00032 0.81223 0.36429 0.812 0.813v1.4375l4.8125-3.4375-4.8125-3.4375v1.4375c-0.00032 0.44832-0.36368 0.81168-0.812 0.812h-3c-1.1803 0-2.6231-0.56534-3.8125-1.625-1.1592-1.0328-2-2.4671-2-4.1875 0-4.7966-3.6008-8.1875-7.6875-8.1875l-5.6875-0.00005z" stroke="url(#b)" stroke-width="0.8" fill="none"/>
 <path opacity=".6" fill="url(#a)" d="m20.968 17.406c-1.15 1.1828-2.0687 2.6675-2.5625 4.4062 0.40105 0.68112 0.625 1.5619 0.625 2.6875 0 2.8876 1.3788 5.2949 3.1875 6.9062 0.06175 0.05502 0.12476 0.10276 0.1875 0.15625 1.1268-1.2986 1.9555-2.9182 2.3438-4.7188-0.4785-0.67914-0.78125-1.4512-0.78125-2.3438 0-2.9001-1.1734-5.3943-3-7.0938z" fill-rule="evenodd"/>
 <path d="m31.5 12.5v3h-3c-2.1222 0.000001-4.247 0.90356-5.9688 2.4375-1.722 1.533-3.031 3.827-3.031 6.562 0 3.336-2.0391 5-4.5 5h-6.5v4h6.5c4.5391 0 8.5-3.7914 8.5-9 0-1.4651 0.69052-2.6777 1.7188-3.5938 1.028-0.916 2.403-1.406 3.281-1.406h3v3l7-5z" fill-rule="evenodd" stroke="#444" fill="url(#e)"/>
 <path opacity=".6" d="m32.344 15.5c-0.0047 0.46418-0.37982 0.83933-0.844 0.844h-3c-1.8802 0.000001-3.8204 0.80593-5.4062 2.2188-1.5669 1.396-2.75 3.4747-2.75 5.9375 0 1.8417-0.5706 3.3329-1.5625 4.3438-0.9919 1.0108-2.3587 1.5-3.7812 1.5h-5.6561v2.3125h5.6562c4.0644 0 7.6562-3.3799 7.6562-8.1562 0-1.733 0.83431-3.1802 2-4.2188 1.1974-1.0667 2.6486-1.625 3.8438-1.625h3c0.46418 0.0047 0.83933 0.37982 0.844 0.844v1.3438l4.6875-3.3438-4.6876-3.3441z" stroke="url(#c)" stroke-width="0.8" fill="none"/>
</svg>
