<?xml version="1.0" encoding="UTF-8" standalone="no"?>
<!-- Created with Inkscape (http://www.inkscape.org/) -->

<svg
   xmlns:dc="http://purl.org/dc/elements/1.1/"
   xmlns:cc="http://creativecommons.org/ns#"
   xmlns:rdf="http://www.w3.org/1999/02/22-rdf-syntax-ns#"
   xmlns:svg="http://www.w3.org/2000/svg"
   xmlns="http://www.w3.org/2000/svg"
   xmlns:xlink="http://www.w3.org/1999/xlink"
   xmlns:sodipodi="http://sodipodi.sourceforge.net/DTD/sodipodi-0.dtd"
   xmlns:inkscape="http://www.inkscape.org/namespaces/inkscape"
   width="48px"
   height="48px"
   id="svg7429"
   sodipodi:version="0.32"
   inkscape:version="0.47 r22583"
   sodipodi:docname="multimedia-player-ipod-nano-pink.svg"
   version="1.1">
  <defs
     id="defs7431">
    <inkscape:perspective
       sodipodi:type="inkscape:persp3d"
       inkscape:vp_x="0 : 24 : 1"
       inkscape:vp_y="0 : 1000 : 0"
       inkscape:vp_z="48 : 24 : 1"
       inkscape:persp3d-origin="24 : 16 : 1"
       id="perspective82" />
    <linearGradient
       inkscape:collect="always"
       id="linearGradient2924">
      <stop
         style="stop-color:#ffffff;stop-opacity:1;"
         offset="0"
         id="stop2926" />
      <stop
         style="stop-color:#ffffff;stop-opacity:0;"
         offset="1"
         id="stop2928" />
    </linearGradient>
    <radialGradient
       inkscape:collect="always"
       xlink:href="#linearGradient2924"
       id="radialGradient4706"
       gradientUnits="userSpaceOnUse"
       gradientTransform="matrix(3.495075,0.04547273,-0.01300942,0.999915,-25.42067,-0.463789)"
       cx="10.268794"
       cy="37.354755"
       fx="10.268794"
       fy="37.354755"
       r="2.1875000" />
    <linearGradient
       inkscape:collect="always"
       id="linearGradient5919">
      <stop
         style="stop-color:#000000;stop-opacity:1;"
         offset="0"
         id="stop5921" />
      <stop
         style="stop-color:#000000;stop-opacity:0;"
         offset="1"
         id="stop5923" />
    </linearGradient>
    <radialGradient
       inkscape:collect="always"
       xlink:href="#linearGradient5919"
       id="radialGradient3668"
       gradientUnits="userSpaceOnUse"
       gradientTransform="matrix(1,0,0,0.201878,0,36.03783)"
       cx="30.428225"
       cy="45.153286"
       fx="30.428225"
       fy="45.153286"
       r="13.474453" />
    <linearGradient
       id="linearGradient9203">
      <stop
         style="stop-color:#f9f9f9;stop-opacity:1;"
         offset="0"
         id="stop9205" />
      <stop
         style="stop-color:#f2f2f2;stop-opacity:1.0000000;"
         offset="1.0000000"
         id="stop9207" />
    </linearGradient>
  </defs>
  <sodipodi:namedview
     id="base"
     pagecolor="#ffffff"
     bordercolor="#666666"
     borderopacity="1.0"
     inkscape:pageopacity="0.0"
     inkscape:pageshadow="2"
     inkscape:zoom="8"
     inkscape:cx="-5.583321"
     inkscape:cy="19.637999"
     inkscape:current-layer="layer1"
     showgrid="false"
     inkscape:grid-bbox="true"
     inkscape:document-units="px"
     showguides="false"
     inkscape:guide-bbox="true"
     inkscape:showpageshadow="false"
     inkscape:window-width="1212"
     inkscape:window-height="909"
     inkscape:window-x="296"
     inkscape:window-y="162"
     inkscape:window-maximized="0" />
  <metadata
     id="metadata7434">
    <rdf:RDF>
      <cc:Work
         rdf:about="">
        <dc:format>image/svg+xml</dc:format>
        <dc:type
           rdf:resource="http://purl.org/dc/dcmitype/StillImage" />
        <dc:title />
        <dc:date>October 2005</dc:date>
        <dc:creator>
          <cc:Agent>
            <dc:title>Ryan Collier (pseudo)</dc:title>
          </cc:Agent>
        </dc:creator>
        <dc:publisher>
          <cc:Agent>
            <dc:title>http://www.tango-project.org</dc:title>
          </cc:Agent>
        </dc:publisher>
        <dc:source>http://www.pseudocode.org</dc:source>
        <dc:subject>
          <rdf:Bag>
            <rdf:li>media</rdf:li>
            <rdf:li>device</rdf:li>
            <rdf:li>ipod</rdf:li>
          </rdf:Bag>
        </dc:subject>
        <cc:license
           rdf:resource="http://creativecommons.org/licenses/by-sa/2.0/" />
      </cc:Work>
      <cc:License
         rdf:about="http://creativecommons.org/licenses/by-sa/2.0/">
        <cc:permits
           rdf:resource="http://web.resource.org/cc/Reproduction" />
        <cc:permits
           rdf:resource="http://web.resource.org/cc/Distribution" />
        <cc:requires
           rdf:resource="http://web.resource.org/cc/Notice" />
        <cc:requires
           rdf:resource="http://web.resource.org/cc/Attribution" />
        <cc:permits
           rdf:resource="http://web.resource.org/cc/DerivativeWorks" />
        <cc:requires
           rdf:resource="http://web.resource.org/cc/ShareAlike" />
      </cc:License>
    </rdf:RDF>
  </metadata>
  <g
     id="layer1"
     inkscape:label="Layer 1"
     inkscape:groupmode="layer">
    <g
       style="display:inline"
       id="g4646"
       transform="matrix(0.8885658,0,0,0.93390806,-46.180027,-49.176941)">
      <rect
         transform="matrix(0.85333,-0.521371,0.54466,0.838657,0,0)"
         ry="1.3993458"
         rx="1.5137454"
         y="112.90335"
         x="-0.94968754"
         height="3.1126587"
         width="13.589136"
         id="rect4648"
         style="fill:#eeeeec;fill-opacity:1;stroke:#c2c2c2;stroke-width:0.5;stroke-linecap:round;stroke-linejoin:round;stroke-miterlimit:4;stroke-opacity:1;stroke-dasharray:none" />
      <g
         id="g4650">
        <rect
           style="fill:#ffffff;fill-opacity:1;stroke:#c2c2c2;stroke-width:0.55335927;stroke-linecap:round;stroke-linejoin:round;stroke-miterlimit:4;stroke-opacity:1;stroke-dasharray:none"
           id="rect4652"
           width="9.5848627"
           height="2.5390387"
           x="-5.2611275"
           y="113.35451"
           rx="1.1134398"
           ry="1.2146336"
           transform="matrix(0.844299,-0.535873,0.577335,0.816508,0,0)" />
        <path
           sodipodi:type="arc"
           style="fill:#c2c2c2;fill-opacity:1;stroke:none;display:inline"
           id="path4654"
           sodipodi:cx="13.727494"
           sodipodi:cy="41.231144"
           sodipodi:rx="5.0608273"
           sodipodi:ry="5.0608273"
           d="m 18.788321,41.231144 c 0,2.795018 -2.265809,5.060827 -5.060827,5.060827 -2.795017,0 -5.060827,-2.265809 -5.060827,-5.060827 0,-2.795018 2.26581,-5.060827 5.060827,-5.060827 2.795018,0 5.060827,2.265809 5.060827,5.060827 z"
           transform="matrix(1.086779,0,0,1.086779,52.58125,47.69086)" />
        <path
           sodipodi:type="arc"
           style="fill:#ffffff;fill-opacity:1;stroke:none;display:inline"
           id="path4656"
           sodipodi:cx="13.727494"
           sodipodi:cy="41.231144"
           sodipodi:rx="5.0608273"
           sodipodi:ry="5.0608273"
           d="m 18.788321,41.231144 c 0,2.795018 -2.265809,5.060827 -5.060827,5.060827 -2.795017,0 -5.060827,-2.265809 -5.060827,-5.060827 0,-2.795018 2.26581,-5.060827 5.060827,-5.060827 2.795018,0 5.060827,2.265809 5.060827,5.060827 z"
           transform="matrix(0.934525,0,0,0.934525,54.59161,53.99504)" />
        <g
           id="g4658"
           transform="matrix(1.003468,0,0,0.969091,-0.221812,2.72854)">
          <path
             transform="matrix(0.787521,0,0,0.787521,57.14101,59.79048)"
             d="m 18.788321,41.231144 c 0,2.795018 -2.265809,5.060827 -5.060827,5.060827 -2.795017,0 -5.060827,-2.265809 -5.060827,-5.060827 0,-2.795018 2.26581,-5.060827 5.060827,-5.060827 2.795018,0 5.060827,2.265809 5.060827,5.060827 z"
             sodipodi:ry="5.0608273"
             sodipodi:rx="5.0608273"
             sodipodi:cy="41.231144"
             sodipodi:cx="13.727494"
             id="path4660"
             style="fill:#8d8d8d;fill-opacity:1;stroke:none"
             sodipodi:type="arc" />
          <path
             transform="matrix(1.756842,0,0,1.756842,49.13326,25.12495)"
             d="m 13.000001,38.25 c 0,1.208123 -0.979377,2.1875 -2.1875,2.1875 -1.2081229,0 -2.1875,-0.979377 -2.1875,-2.1875 0,-1.208123 0.9793771,-2.1875 2.1875,-2.1875 1.208123,0 2.1875,0.979377 2.1875,2.1875 z"
             sodipodi:ry="2.1875"
             sodipodi:rx="2.1875"
             sodipodi:cy="38.25"
             sodipodi:cx="10.812501"
             id="path4662"
             style="opacity:0.46703294;fill:url(#radialGradient4706);fill-opacity:1;stroke:none"
             sodipodi:type="arc" />
        </g>
      </g>
    </g>
    <path
       sodipodi:type="arc"
       style="opacity:0.45;fill:url(#radialGradient3668);fill-opacity:1;stroke:none;display:inline"
       id="path5261"
       sodipodi:cx="30.428225"
       sodipodi:cy="45.153286"
       sodipodi:rx="13.474453"
       sodipodi:ry="2.7201946"
       d="m 43.902678,45.153286 a 13.474453,2.7201946 0 1 1 -26.948906,0 13.474453,2.7201946 0 1 1 26.948906,0 z"
       transform="matrix(0.62647266,0,0,2.1518185,3.6092032,-55.99942)" />
    <rect
       style="fill:#fab7b7;fill-opacity:1;stroke:#a40000;stroke-width:0.94730794;stroke-linecap:round;stroke-linejoin:round;stroke-miterlimit:4;stroke-opacity:1;stroke-dasharray:none;display:inline"
       id="rect5391"
       width="15.957745"
       height="41.505779"
       x="14.69136"
       y="2.2237065"
       rx="1.4405075"
       ry="1.6450294" />
    <rect
       style="fill:#eaeef9;fill-opacity:1;stroke:#636363;stroke-width:1.14989436;stroke-linecap:round;stroke-linejoin:round;stroke-miterlimit:4;stroke-opacity:1;stroke-dasharray:none;display:inline"
       id="rect5399"
       width="12.214456"
       height="16.65066"
       x="16.564682"
       y="4.367157"
       rx="0.43454006"
       ry="0.85526252" />
    <rect
       style="fill:#ffffff;fill-opacity:1;fill-rule:nonzero;stroke:none;display:inline"
       id="rect3672"
       width="11.021124"
       height="1.5155096"
       x="17.149273"
       y="4.8860664" />
    <rect
       style="fill:#fab7b7;fill-opacity:1;stroke:none;display:inline"
       id="rect5407"
       width="1.7449669"
       height="1.5155096"
       x="25.725384"
       y="4.8860664"
       rx="0.4345395"
       ry="0" />
    <rect
       style="fill:#8d8d8d;fill-opacity:1;stroke:none;display:inline"
       id="rect5409"
       width="6.1073847"
       height="1.5155096"
       x="21.36297"
       y="8.1358356"
       rx="0"
       ry="1.8753474" />
    <rect
       style="fill:#8d8d8d;fill-opacity:1;stroke:none;display:inline"
       id="rect5411"
       width="6.1073847"
       height="1.5195563"
       x="21.36297"
       y="11.162807"
       rx="0"
       ry="1.8753474" />
    <rect
       style="fill:#8d8d8d;fill-opacity:1;stroke:none;display:inline"
       id="rect5417"
       width="5.234901"
       height="1.5155096"
       x="19.618004"
       y="4.8860664"
       rx="0"
       ry="1.8753474" />
    <rect
       style="fill:#8d8d8d;fill-opacity:1;stroke:none;display:inline"
       id="rect5419"
       width="2.6174505"
       height="1.5155096"
       x="17.873035"
       y="17.228891"
       rx="0"
       ry="1.8753474" />
    <rect
       style="fill:#d3d7cf;fill-opacity:1;stroke:none;display:inline"
       id="rect5423"
       width="9.5973196"
       height="1.5155096"
       x="17.873035"
       y="14.197873"
       rx="0"
       ry="1.8753474" />
    <rect
       style="fill:#729fcf;fill-opacity:1;stroke:none;display:inline"
       id="rect5425"
       width="7.8523517"
       height="1.5155096"
       x="17.873035"
       y="14.193827"
       rx="0"
       ry="1.8753474" />
    <rect
       ry="0.75479841"
       style="fill:#8f5902;fill-opacity:1;stroke:none;display:inline"
       id="rect5429"
       width="2.6174641"
       height="4.5465283"
       x="17.864983"
       y="8.1554689"
       rx="0.43453947" />
    <rect
       ry="0.63270348"
       rx="0.55404127"
       y="3.2571013"
       x="15.579163"
       height="39.523552"
       width="14.184278"
       id="rect5433"
       style="fill:none;stroke:#a40000;stroke-width:0.94730735;stroke-linecap:round;stroke-linejoin:round;stroke-miterlimit:4;stroke-opacity:0;stroke-dasharray:none;display:inline" />
    <rect
       style="fill:#8d8d8d;fill-opacity:1;stroke:none;display:inline"
       id="rect3634"
       width="2.6174505"
       height="1.5155096"
       x="24.852901"
       y="17.228891"
       rx="0"
       ry="1.8753474" />
    <path
       style="opacity:0.37912089;fill:#fab7b7;fill-opacity:1;stroke:none;display:inline"
       d="m 15.112672,3.798355 c -0.0078,-0.540856 0.469916,-1.046492 0.870511,-1.063712 0.459411,-0.02103 12.855401,0.02963 12.855401,0.02963 0,0 1.445914,-0.229261 1.338182,1.162089 -3.379191,3.120464 -8.920218,12.48086 -8.494828,18.16284 0.928963,12.270033 -6.561997,20.121023 -6.561997,20.121023 0,0 0.0095,-36.579623 -0.0073,-38.411871 z"
       id="path6765"
       sodipodi:nodetypes="ccccscc" />
    <path
       sodipodi:type="arc"
       style="fill:#ffffff;fill-opacity:1;stroke:none;display:inline"
       id="path5395"
       sodipodi:cx="26.030369"
       sodipodi:cy="26.742603"
       sodipodi:rx="7.2036505"
       sodipodi:ry="7.2036505"
       d="m 33.234019,26.742603 a 7.2036505,7.2036505 0 1 1 -14.407301,0 7.2036505,7.2036505 0 1 1 14.407301,0 z"
       transform="matrix(0.8019102,0,0,0.84268392,1.7986633,7.2027134)" />
    <text
       xml:space="preserve"
       style="font-size:0.85835272px;font-style:normal;font-variant:normal;font-weight:bold;font-stretch:normal;text-align:start;line-height:125%;writing-mode:lr-tb;text-anchor:start;fill:#d7d7d7;fill-opacity:1;stroke:none;display:inline;font-family:Bitstream Vera Sans"
       x="21.777676"
       y="24.656897"
       id="text5401"
       sodipodi:linespacing="125%"
       transform="scale(0.97631339,1.0242613)"><tspan
         sodipodi:role="line"
         id="tspan5403"
         x="21.777676"
         y="24.656897">MENU</tspan></text>
    <g
       id="g4766"
       style="fill:#d7d7d7;fill-opacity:1;stroke:none"
       transform="matrix(0.8885658,0,0,0.93390806,0.9038224,3.1194161)">
      <g
         transform="matrix(-1.452503,0,0,1.61689,61.36126,-18.66043)"
         id="g5435"
         style="fill:#d7d7d7;fill-opacity:1;stroke:none;display:inline">
        <g
           id="g5437"
           style="fill:#d7d7d7;fill-opacity:1;stroke:none">
          <path
             transform="matrix(0.314794,-0.435197,0.44667,0.307983,21.21828,34.76076)"
             d="M 17.25,6.28125 16.738712,6.0451923 16.227424,5.8091345 16.6875,5.484375 17.147576,5.1596154 17.198788,5.7204327 17.25,6.28125 z"
             inkscape:randomized="0"
             inkscape:rounded="0"
             inkscape:flatsided="false"
             sodipodi:arg2="2.0033309"
             sodipodi:arg1="0.95613337"
             sodipodi:r2="0.3251352"
             sodipodi:r1="0.6502704"
             sodipodi:cy="5.75"
             sodipodi:cx="16.875"
             sodipodi:sides="3"
             id="path5439"
             style="fill:#d7d7d7;fill-opacity:1;stroke:none;display:inline"
             sodipodi:type="star" />
          <path
             transform="matrix(0.314794,-0.435197,0.44667,0.307983,20.71828,34.76076)"
             d="M 17.25,6.28125 16.738712,6.0451923 16.227424,5.8091345 16.6875,5.484375 17.147576,5.1596154 17.198788,5.7204327 17.25,6.28125 z"
             inkscape:randomized="0"
             inkscape:rounded="0"
             inkscape:flatsided="false"
             sodipodi:arg2="2.0033309"
             sodipodi:arg1="0.95613337"
             sodipodi:r2="0.3251352"
             sodipodi:r1="0.6502704"
             sodipodi:cy="5.75"
             sodipodi:cx="16.875"
             sodipodi:sides="3"
             id="path5441"
             style="fill:#d7d7d7;fill-opacity:1;stroke:none;display:inline"
             sodipodi:type="star" />
        </g>
        <rect
           style="fill:#d7d7d7;fill-opacity:1;stroke:none"
           id="rect5443"
           width="0.10496103"
           height="0.60214609"
           x="29.455418"
           y="28.891544"
           ry="0" />
      </g>
    </g>
    <g
       id="g4786"
       style="fill:#d7d7d7;fill-opacity:1;stroke:none"
       transform="matrix(0.8885658,0,0,0.93390806,0.9038224,3.1194161)">
      <g
         id="g4773"
         style="fill:#d7d7d7;fill-opacity:1;stroke:none">
        <g
           style="fill:#d7d7d7;fill-opacity:1;stroke:none;display:inline"
           id="g5445"
           transform="matrix(1.452503,0,0,1.61689,-12.53564,-18.67193)">
          <g
             style="fill:#d7d7d7;fill-opacity:1;stroke:none"
             id="g5447">
            <path
               sodipodi:type="star"
               style="fill:#d7d7d7;fill-opacity:1;stroke:none;display:inline"
               id="path5449"
               sodipodi:sides="3"
               sodipodi:cx="16.875"
               sodipodi:cy="5.75"
               sodipodi:r1="0.6502704"
               sodipodi:r2="0.3251352"
               sodipodi:arg1="0.95613337"
               sodipodi:arg2="2.0033309"
               inkscape:flatsided="false"
               inkscape:rounded="0"
               inkscape:randomized="0"
               d="M 17.25,6.28125 16.738712,6.0451923 16.227424,5.8091345 16.6875,5.484375 17.147576,5.1596154 17.198788,5.7204327 17.25,6.28125 z"
               transform="matrix(0.314794,-0.435197,0.44667,0.307983,21.21828,34.76076)" />
            <path
               sodipodi:type="star"
               style="fill:#d7d7d7;fill-opacity:1;stroke:none;display:inline"
               id="path5451"
               sodipodi:sides="3"
               sodipodi:cx="16.875"
               sodipodi:cy="5.75"
               sodipodi:r1="0.6502704"
               sodipodi:r2="0.3251352"
               sodipodi:arg1="0.95613337"
               sodipodi:arg2="2.0033309"
               inkscape:flatsided="false"
               inkscape:rounded="0"
               inkscape:randomized="0"
               d="M 17.25,6.28125 16.738712,6.0451923 16.227424,5.8091345 16.6875,5.484375 17.147576,5.1596154 17.198788,5.7204327 17.25,6.28125 z"
               transform="matrix(0.314794,-0.435197,0.44667,0.307983,20.71828,34.76076)" />
          </g>
          <rect
             ry="0"
             y="28.891544"
             x="29.455418"
             height="0.60214609"
             width="0.10496103"
             id="rect5453"
             style="fill:#d7d7d7;fill-opacity:1;stroke:none" />
        </g>
      </g>
    </g>
    <g
       id="g4794"
       style="fill:#d7d7d7;fill-opacity:1;stroke:none"
       transform="matrix(0.8885658,0,0,0.93390806,0.9038224,3.1194161)">
      <g
         id="g4780"
         style="fill:#d7d7d7;fill-opacity:1;stroke:none">
        <g
           style="fill:#d7d7d7;fill-opacity:1;stroke:none;display:inline"
           id="g5455"
           transform="matrix(1.110422,0,0,1.124669,-2.326838,-5.984431)">
          <path
             transform="matrix(0.461555,-0.638092,0.654914,0.451569,12.10407,43.22973)"
             d="M 17.25,6.28125 16.738712,6.0451923 16.227424,5.8091345 16.6875,5.484375 17.147576,5.1596154 17.198788,5.7204327 17.25,6.28125 z"
             inkscape:randomized="0"
             inkscape:rounded="0"
             inkscape:flatsided="false"
             sodipodi:arg2="2.0033309"
             sodipodi:arg1="0.95613337"
             sodipodi:r2="0.3251352"
             sodipodi:r1="0.6502704"
             sodipodi:cy="5.75"
             sodipodi:cx="16.875"
             sodipodi:sides="3"
             id="path5457"
             style="fill:#d7d7d7;fill-opacity:1;stroke:none;display:inline"
             sodipodi:type="star" />
          <rect
             ry="0"
             y="34.624207"
             x="24.306477"
             height="0.88287503"
             width="0.15389533"
             id="rect5459"
             style="fill:#d7d7d7;fill-opacity:1;stroke:none" />
          <rect
             ry="0"
             y="34.620716"
             x="24.682838"
             height="0.88287503"
             width="0.15389533"
             id="rect5461"
             style="fill:#d7d7d7;fill-opacity:1;stroke:none;display:inline" />
        </g>
      </g>
    </g>
    <g
       style="display:inline"
       id="g4664"
       transform="matrix(0.8885658,0,0,0.93390806,-50.460435,-49.176941)">
      <path
         sodipodi:nodetypes="cs"
         id="path4666"
         d="m 97.88267,96.940154 c 6.70725,-1.555673 -5.855102,-2.314691 -6.542311,-2.233144"
         style="fill:none;stroke:#c2c2c2;stroke-width:1.91250193;stroke-linecap:butt;stroke-linejoin:round;stroke-miterlimit:4;stroke-opacity:1;stroke-dasharray:none;display:inline" />
      <path
         sodipodi:nodetypes="cs"
         id="path4668"
         d="m 97.875398,96.899543 c 6.707252,-1.555673 -5.855101,-2.31469 -6.54232,-2.233144"
         style="fill:none;stroke:#ffffff;stroke-width:0.78483576;stroke-linecap:butt;stroke-linejoin:miter;stroke-miterlimit:4;stroke-opacity:1;stroke-dasharray:none;display:inline" />
      <g
         transform="matrix(1.148447,0,0,1.148447,52.4095,48.70484)"
         id="g4670"
         style="fill:#c2c2c2;fill-opacity:1;display:inline">
        <path
           sodipodi:type="arc"
           style="fill:#c2c2c2;fill-opacity:1;stroke:none;display:inline"
           id="path4672"
           sodipodi:cx="30.828125"
           sodipodi:cy="41.484375"
           sodipodi:rx="4.578125"
           sodipodi:ry="4.578125"
           d="m 35.40625,41.484375 c 0,2.528429 -2.049696,4.578125 -4.578125,4.578125 -2.528429,0 -4.578125,-2.049696 -4.578125,-4.578125 0,-2.528429 2.049696,-4.578125 4.578125,-4.578125 2.528429,0 4.578125,2.049696 4.578125,4.578125 z"
           transform="matrix(1.044369,0,0,1.044369,-1.649051,-1.715604)" />
        <path
           sodipodi:type="arc"
           style="fill:#c2c2c2;fill-opacity:1;stroke:none"
           id="path4674"
           sodipodi:cx="30.828125"
           sodipodi:cy="41.484375"
           sodipodi:rx="4.578125"
           sodipodi:ry="4.578125"
           d="m 35.40625,41.484375 c 0,2.528429 -2.049696,4.578125 -4.578125,4.578125 -2.528429,0 -4.578125,-2.049696 -4.578125,-4.578125 0,-2.528429 2.049696,-4.578125 4.578125,-4.578125 2.528429,0 4.578125,2.049696 4.578125,4.578125 z"
           transform="translate(0.25,0.34375)" />
      </g>
      <path
         transform="matrix(1.02821,0,0,1.02821,55.83221,53.73015)"
         d="m 35.40625,41.484375 c 0,2.528429 -2.049696,4.578125 -4.578125,4.578125 -2.528429,0 -4.578125,-2.049696 -4.578125,-4.578125 0,-2.528429 2.049696,-4.578125 4.578125,-4.578125 2.528429,0 4.578125,2.049696 4.578125,4.578125 z"
         sodipodi:ry="4.578125"
         sodipodi:rx="4.578125"
         sodipodi:cy="41.484375"
         sodipodi:cx="30.828125"
         id="path4676"
         style="fill:#eeeeec;fill-opacity:1;stroke:none;display:inline"
         sodipodi:type="arc" />
      <path
         transform="matrix(0.984529,0,0,0.984529,57.7018,55.75757)"
         d="m 35.40625,41.484375 c 0,2.528429 -2.049696,4.578125 -4.578125,4.578125 -2.528429,0 -4.578125,-2.049696 -4.578125,-4.578125 0,-2.528429 2.049696,-4.578125 4.578125,-4.578125 2.528429,0 4.578125,2.049696 4.578125,4.578125 z"
         sodipodi:ry="4.578125"
         sodipodi:rx="4.578125"
         sodipodi:cy="41.484375"
         sodipodi:cx="30.828125"
         id="path4678"
         style="fill:#ffffff;fill-opacity:1;stroke:none;display:inline"
         sodipodi:type="arc" />
      <g
         transform="matrix(1.007793,0,0,1.004691,56.19417,54.3161)"
         id="g4680"
         style="display:inline">
        <rect
           style="fill:#eeeeec;fill-opacity:1;stroke:#c2c2c2;stroke-width:0.49689928;stroke-linecap:round;stroke-linejoin:round;stroke-miterlimit:4;stroke-opacity:1;stroke-dasharray:none"
           id="rect4682"
           width="13.480978"
           height="3.0878816"
           x="20.703314"
           y="47.136684"
           rx="1.6140188"
           ry="1.5439408"
           transform="matrix(0.985898,-0.167348,0.194419,0.980919,0,0)" />
        <rect
           style="fill:#ffffff;fill-opacity:1;stroke:#c2c2c2;stroke-width:0.5495854;stroke-linecap:round;stroke-linejoin:round;stroke-miterlimit:4;stroke-opacity:1;stroke-dasharray:none"
           id="rect4684"
           width="9.4694977"
           height="3.0802486"
           x="21.659946"
           y="47.28104"
           rx="1.3586608"
           ry="1.4996823"
           transform="matrix(0.984635,-0.174627,0.177401,0.984139,0,0)" />
      </g>
      <g
         transform="matrix(1.211847,0,0,1.211847,52.90119,45.21661)"
         id="g4686"
         style="display:inline">
        <path
           sodipodi:type="arc"
           style="fill:#cacaca;fill-opacity:1;stroke:none"
           id="path4688"
           sodipodi:cx="29.265625"
           sodipodi:cy="39.921875"
           sodipodi:rx="0.765625"
           sodipodi:ry="0.765625"
           d="m 30.03125,39.921875 c 0,0.422843 -0.342782,0.765625 -0.765625,0.765625 -0.422843,0 -0.765625,-0.342782 -0.765625,-0.765625 0,-0.422843 0.342782,-0.765625 0.765625,-0.765625 0.422843,0 0.765625,0.342782 0.765625,0.765625 z"
           transform="translate(-0.34375,-0.09375)" />
        <text
           xml:space="preserve"
           style="font-size:1.31750739px;font-style:normal;font-variant:normal;font-weight:bold;font-stretch:normal;text-align:start;line-height:125%;writing-mode:lr-tb;text-anchor:start;fill:#ffffff;fill-opacity:1;stroke:none;font-family:Bitstream Vera Sans"
           x="-40.349224"
           y="29.42164"
           id="text4690"
           sodipodi:linespacing="125%"
           transform="matrix(0,-1,1,0,0,0)"><tspan
             sodipodi:role="line"
             id="tspan4692"
             x="-40.349224"
             y="29.42164">R</tspan></text>
      </g>
      <path
         transform="matrix(4.648302e-8,-0.525081,0.525081,4.648302e-8,63.94198,112.1245)"
         d="m 31.874998,38.90625 c 0,0.258883 -0.209866,0.46875 -0.46875,0.46875 -0.258883,0 -0.46875,-0.209867 -0.46875,-0.46875 0,-0.258883 0.209867,-0.46875 0.46875,-0.46875 0.258884,0 0.46875,0.209867 0.46875,0.46875 z"
         sodipodi:ry="0.46874997"
         sodipodi:rx="0.46874997"
         sodipodi:cy="38.90625"
         sodipodi:cx="31.406248"
         id="path4694"
         style="fill:#8d8d8d;fill-opacity:1;stroke:none;display:inline"
         sodipodi:type="arc" />
      <path
         transform="matrix(4.648302e-8,-0.525081,0.525081,4.648302e-8,64.44962,111.0811)"
         d="m 31.874998,38.90625 c 0,0.258883 -0.209866,0.46875 -0.46875,0.46875 -0.258883,0 -0.46875,-0.209867 -0.46875,-0.46875 0,-0.258883 0.209867,-0.46875 0.46875,-0.46875 0.258884,0 0.46875,0.209867 0.46875,0.46875 z"
         sodipodi:ry="0.46874997"
         sodipodi:rx="0.46874997"
         sodipodi:cy="38.90625"
         sodipodi:cx="31.406248"
         id="path4696"
         style="fill:#8d8d8d;fill-opacity:1;stroke:none;display:inline"
         sodipodi:type="arc" />
      <path
         transform="matrix(4.648302e-8,-0.525081,0.525081,4.648302e-8,65.15726,110.3156)"
         d="m 31.874998,38.90625 c 0,0.258883 -0.209866,0.46875 -0.46875,0.46875 -0.258883,0 -0.46875,-0.209867 -0.46875,-0.46875 0,-0.258883 0.209867,-0.46875 0.46875,-0.46875 0.258884,0 0.46875,0.209867 0.46875,0.46875 z"
         sodipodi:ry="0.46874997"
         sodipodi:rx="0.46874997"
         sodipodi:cy="38.90625"
         sodipodi:cx="31.406248"
         id="path4698"
         style="fill:#8d8d8d;fill-opacity:1;stroke:none;display:inline"
         sodipodi:type="arc" />
      <path
         transform="matrix(4.648302e-8,-0.525081,0.525081,4.648302e-8,63.85072,113.2347)"
         d="m 31.874998,38.90625 c 0,0.258883 -0.209866,0.46875 -0.46875,0.46875 -0.258883,0 -0.46875,-0.209867 -0.46875,-0.46875 0,-0.258883 0.209867,-0.46875 0.46875,-0.46875 0.258884,0 0.46875,0.209867 0.46875,0.46875 z"
         sodipodi:ry="0.46874997"
         sodipodi:rx="0.46874997"
         sodipodi:cy="38.90625"
         sodipodi:cx="31.406248"
         id="path4700"
         style="fill:#8d8d8d;fill-opacity:1;stroke:none;display:inline"
         sodipodi:type="arc" />
      <path
         transform="matrix(4.648302e-8,-0.525081,0.525081,4.648302e-8,64.12085,114.3221)"
         d="m 31.874998,38.90625 c 0,0.258883 -0.209866,0.46875 -0.46875,0.46875 -0.258883,0 -0.46875,-0.209867 -0.46875,-0.46875 0,-0.258883 0.209867,-0.46875 0.46875,-0.46875 0.258884,0 0.46875,0.209867 0.46875,0.46875 z"
         sodipodi:ry="0.46874997"
         sodipodi:rx="0.46874997"
         sodipodi:cy="38.90625"
         sodipodi:cx="31.406248"
         id="path4702"
         style="fill:#8d8d8d;fill-opacity:1;stroke:none;display:inline"
         sodipodi:type="arc" />
      <path
         transform="matrix(4.648302e-8,-0.525081,0.525081,4.648302e-8,64.65661,115.3336)"
         d="m 31.874998,38.90625 c 0,0.258883 -0.209866,0.46875 -0.46875,0.46875 -0.258883,0 -0.46875,-0.209867 -0.46875,-0.46875 0,-0.258883 0.209867,-0.46875 0.46875,-0.46875 0.258884,0 0.46875,0.209867 0.46875,0.46875 z"
         sodipodi:ry="0.46874997"
         sodipodi:rx="0.46874997"
         sodipodi:cy="38.90625"
         sodipodi:cx="31.406248"
         id="path4704"
         style="fill:#8d8d8d;fill-opacity:1;stroke:none;display:inline"
         sodipodi:type="arc" />
    </g>
    <path
       sodipodi:type="arc"
       style="fill:#fab7b7;fill-opacity:1;stroke:#fab7b7;stroke-width:0.92000002000000003;stroke-miterlimit:4;stroke-opacity:1;stroke-dasharray:none"
       id="path4764"
       sodipodi:cx="26"
       sodipodi:cy="27"
       sodipodi:rx="1.5"
       sodipodi:ry="1.5"
       d="m 27.5,27 a 1.5,1.5 0 1 1 -3,0 1.5,1.5 0 1 1 3,0 z"
       transform="matrix(1.3419157,0,0,1.4103918,-12.216124,-8.2864123)" />
  </g>
</svg>
