<?xml version="1.0" encoding="UTF-8" standalone="no"?>
<!-- Created with Inkscape (http://www.inkscape.org/) -->
<svg id="svg2" xmlns:rdf="http://www.w3.org/1999/02/22-rdf-syntax-ns#" xmlns="http://www.w3.org/2000/svg" height="48" width="48" version="1.0" xmlns:cc="http://creativecommons.org/ns#" xmlns:xlink="http://www.w3.org/1999/xlink" xmlns:dc="http://purl.org/dc/elements/1.1/">
 <defs id="defs4">
  <linearGradient id="linearGradient6853" y2="128.36" gradientUnits="userSpaceOnUse" x2="102.5" y1="91.362" x1="119.5">
   <stop id="stop5521" stop-color="#88ae04" offset="0"/>
   <stop id="stop5523" stop-color="#73a400" offset="1"/>
  </linearGradient>
  <radialGradient id="radialGradient6855" gradientUnits="userSpaceOnUse" cy="120.17" cx="147.77" gradientTransform="matrix(1.1318 .19770 -.17031 .97502 -125.44 -100.51)" r="14.451">
   <stop id="stop6357" stop-color="#23371c" offset="0"/>
   <stop id="stop6359" stop-color="#004100" offset="1"/>
  </radialGradient>
  <linearGradient id="linearGradient6857" y2="106.61" gradientUnits="userSpaceOnUse" x2="139.16" gradientTransform="translate(-125.46 -77.491)" y1="85.104" x1="149.09">
   <stop id="stop6349" stop-color="#abd033" offset="0"/>
   <stop id="stop6351" stop-color="#9ec02d" stop-opacity="0" offset="1"/>
  </linearGradient>
  <filter id="filter7655" height="3.1425" width="3.1425" y="-1.0713" x="-1.0713">
   <feGaussianBlur id="feGaussianBlur7657" stdDeviation="20.086019"/>
  </filter>
  <linearGradient id="linearGradient7719" y2="15.166" gradientUnits="userSpaceOnUse" x2="31.113" gradientTransform="matrix(.99992 .012329 -.012329 .99992 .25877 -.28640)" y1="17.418" x1="38.714">
   <stop id="stop7715" stop-color="#193d00" offset="0"/>
   <stop id="stop7717" stop-color="#1f4b00" offset="1"/>
  </linearGradient>
  <linearGradient id="linearGradient7727" y2="22.312" gradientUnits="userSpaceOnUse" x2="27.4" gradientTransform="matrix(.96506 0.0119 -.012329 .99992 1.1113 -.27589)" y1="25.906" x1="35.709">
   <stop id="stop7723" stop-color="#1a4300" offset="0"/>
   <stop id="stop7725" stop-color="#215300" offset="1"/>
  </linearGradient>
  <linearGradient id="linearGradient7735" y2="26.433" gradientUnits="userSpaceOnUse" x2="23.134" gradientTransform="matrix(.85964 0.0106 -.012329 .99992 3.504 -.24639)" y1="31.415" x1="35.608">
   <stop id="stop7731" stop-color="#467700" offset="0"/>
   <stop id="stop7733" stop-color="#518900" offset="1"/>
  </linearGradient>
  <filter id="filter7785" height="1.2967" width="1.179" y="-.14835" x="-.089480">
   <feGaussianBlur id="feGaussianBlur7787" stdDeviation="1.5684595"/>
  </filter>
 </defs>
 <metadata id="metadata7">
  <rdf:RDF>
   <cc:Work rdf:about="">
    <dc:format>image/svg+xml</dc:format>
    <dc:type rdf:resource="http://purl.org/dc/dcmitype/StillImage"/>
   </cc:Work>
  </rdf:RDF>
 </metadata>
 <g id="layer1">
  <g id="g6847" transform="translate(-.29021 -.74569)">
   <path id="path6363" opacity=".64567" d="m135 109.86a22.5 22.5 0 1 1 -45 0 22.5 22.5 0 1 1 45 0z" transform="matrix(.46667 0 0 .11111 -28.71 33.039)" filter="url(#filter7655)"/>
   <path id="path5513" d="m135 109.86a22.5 22.5 0 1 1 -45 0 22.5 22.5 0 1 1 45 0z" transform="translate(-88.71 -85.616)" fill="url(#linearGradient6853)"/>
   <path id="path5529" d="m7.6379 39.42c0.5303 0 3.6601-7.327 15.593-5.913 11.932 1.414 13.31 9.272 13.31 9.272-2.051 1.401-4.232 2.627-6.983 3.094 0 0-2.999-5.547-8.39-5.194-5.392 0.354-7.255 3.514-7.255 3.514-2.771-0.995-4.9173-2.6-6.2751-4.773z" fill-rule="evenodd" fill="url(#radialGradient6855)"/>
   <path id="path5531" d="m2.6652 29.121c32.651-18.49 28-1.75 42-2.625-0.522-10.933-9.462-22.75-21-22.75-16.965 0.5659-21.717 16.838-21 25.375z" fill-rule="evenodd" filter="url(#filter7785)" fill="url(#linearGradient6857)"/>
  </g>
  <path id="path7661" d="m10.3 11.62c-2.059 0.393-2.3574 3.735 0.465 3.693 11.212-2.112 20.284 0.186 28.905 4.513 1.138 0.553 2.978-1.797 1.35-3.067-9.703-5.145-21.059-6.881-30.72-5.139z" fill="url(#linearGradient7719)"/>
  <path id="path7666" d="m12.304 19.145c-2.131 0.236-2.4746 3.824 0.258 3.503 9.342-1.138 15.292-0.019 23.121 3.161 1.964 1.064 3.042-2.326 1.246-3.204-8.795-3.715-15.517-3.879-24.625-3.46z" fill="url(#linearGradient7727)"/>
  <path id="path7668" d="m14.448 25.703c-1.694 0.605-1.394 3.446 0.415 3.349 3.008-0.33 5.291-0.346 8.753 0.046 3.51 0.397 5.617 1.338 8.541 2.355 1.193 0.509 2.29-1.689 1.031-2.925-3.222-1.253-5.772-2.353-9.799-2.809-3.305-0.371-5.633-0.347-8.941-0.016z" fill="url(#linearGradient7735)"/>
 </g>
</svg>
